<?xml version="1.0" standalone="no"?>
<!DOCTYPE svg PUBLIC "-//W3C//DTD SVG 20010904//EN"
 "http://www.w3.org/TR/2001/REC-SVG-20010904/DTD/svg10.dtd">
<svg version="1.0" xmlns="http://www.w3.org/2000/svg"
 width="21.000000pt" height="21.000000pt" viewBox="0 0 21.000000 21.000000"
 preserveAspectRatio="xMidYMid meet">
<metadata>
Created by potrace 1.16, written by Peter Selinger 2001-2019
</metadata>
<g transform="translate(0.000000,21.000000) scale(0.100000,-0.100000)"
fill="#000000" stroke="none">
<path d="M120 159 c0 -37 -2 -39 -30 -39 -16 0 -30 5 -30 10 0 6 -11 10 -25
10 -30 0 -32 -10 -5 -33 16 -14 18 -21 10 -36 -15 -30 -12 -40 16 -53 22 -10
28 -10 40 6 12 17 14 17 29 2 32 -31 54 -18 72 46 18 63 -1 108 -54 121 -21 5
-23 2 -23 -34z"/>
</g>
</svg>
